<?xml version="1.0" encoding="UTF-8"?><svg id="Capa_1" xmlns="http://www.w3.org/2000/svg" xmlns:xlink="http://www.w3.org/1999/xlink" viewBox="0 0 394.96 81.43"><defs><style>.cls-1{fill:#3056b6;}.cls-2{fill:url(#Degradado_sin_nombre);}</style><linearGradient id="Degradado_sin_nombre" x1="182.75" y1="109.3" x2="266.03" y2="109.3" gradientTransform="translate(0 142.43) scale(1 -1)" gradientUnits="userSpaceOnUse"><stop offset=".05" stop-color="#6fc3c7"/><stop offset=".96" stop-color="#3056b6"/></linearGradient></defs><g id="eng"><path class="cls-2" d="m191.08,16.95c4.51,0,8.16-3.65,8.16-8.16,0-4.51-3.65-8.16-8.16-8.16-4.51,0-8.16,3.65-8.16,8.16,0,4.5,3.66,8.15,8.16,8.16Zm20.54,0h8.76c4.51,0,8.17-3.66,8.17-8.17,0-4.51-3.66-8.17-8.17-8.17h-8.76c-4.51,0-8.17,3.66-8.17,8.17,0,4.51,3.66,8.17,8.17,8.17h0Zm46.22,24.1c4.52,0,8.18-3.65,8.19-8.17s-3.65-8.18-8.17-8.19c-4.52,0-8.18,3.65-8.19,8.17h0c0,4.52,3.66,8.18,8.17,8.19Zm-45.87,8.25h-21c-4.51,0-8.17,3.66-8.17,8.17s3.66,8.17,8.17,8.17h21c4.51,0,8.17-3.65,8.18-8.16,0-4.51-3.65-8.17-8.16-8.18,0,0,0,0-.01,0Zm-21-8.27h46.23c4.51,0,8.17-3.66,8.17-8.17,0-4.51-3.66-8.17-8.17-8.17h-46.28c-4.51,0-8.17,3.66-8.17,8.17,0,4.51,3.66,8.17,8.17,8.17h.05Z"/><path class="cls-1" d="m288.8,16.54h-7.08V1.65h6.91c3,0,4.91,1.51,4.91,3.85h0c.03,1.37-.76,2.63-2,3.22,1.72.65,2.79,1.65,2.79,3.65h0c.04,2.81-2.18,4.17-5.53,4.17Zm1.48-10.48c0-1-.76-1.54-2.14-1.54h-3.24v3.15h3c1.45,0,2.36-.47,2.36-1.57l.02-.04Zm.83,6c0-1-.74-1.62-2.42-1.62h-3.79v3.28h3.9c1.44,0,2.31-.51,2.31-1.62v-.04Z"/><path class="cls-1" d="m297.22,16.54V1.65h3.27v14.89h-3.27Z"/><path class="cls-1" d="m315.84,16.54V6.82l-4.19,6.36h-.08l-4.15-6.3v9.66h-3.21V1.65h3.53l3.91,6.3,3.92-6.3h3.51v14.89h-3.24Z"/><path class="cls-1" d="m293.22,29.89c.03,1.54-.91,2.93-2.36,3.46,1.76.53,3.22,1.6,3.22,3.6,0,2.57-2.15,4.08-5.4,4.08h-6.6v-14.87h6.34c2.88,0,4.8,1.45,4.8,3.73Zm-1.7.23c0-1.49-1.17-2.45-3.3-2.45h-4.53v5.13h4.39c2,0,3.44-.92,3.44-2.68Zm.83,6.74c0-1.64-1.36-2.57-4-2.57h-4.7v5.25h5c2.29,0,3.7-1,3.7-2.68Z"/><path class="cls-1" d="m309.55,34.69c0,4.34-2.49,6.59-6.21,6.59s-6.19-2.25-6.19-6.46v-8.66h1.68v8.55c0,3.21,1.7,5,4.55,5s4.49-1.66,4.49-4.91v-8.64h1.68v8.53Z"/><path class="cls-1" d="m315.35,26.16v14.89h-1.68v-14.89h1.68Z"/><path class="cls-1" d="m319.71,26.16h1.68v13.34h8.38v1.55h-10.06v-14.89Z"/><path class="cls-1" d="m336.38,41.05h-1.7v-13.33h-5v-1.56h11.7v1.56h-5v13.33Z"/><path class="cls-1" d="m361.6,27.72h-9v5.31h8.06v1.53h-8.08v6.49h-1.67v-14.89h10.69v1.56Z"/><path class="cls-1" d="m371.44,41.3c-4.25.03-7.73-3.39-7.76-7.64s3.39-7.73,7.64-7.76c4.25-.03,7.73,3.39,7.76,7.64,0,.01,0,.03,0,.04.09,4.17-3.21,7.62-7.38,7.72-.09,0-.18,0-.26,0Zm0-13.84c-3.23.01-5.84,2.64-5.83,5.87,0,.08,0,.16,0,.25-.14,3.27,2.4,6.03,5.66,6.16.07,0,.14,0,.21,0,3.23-.01,5.84-2.64,5.83-5.87,0-.08,0-.16,0-.25.14-3.27-2.4-6.03-5.66-6.16-.07,0-.14,0-.21,0Z"/><path class="cls-1" d="m392.86,41.05l-4.32-5.79h-4.25v5.79h-1.68v-14.89h6.4c3.27,0,5.38,1.77,5.38,4.45,0,2.49-1.7,3.93-4,4.36l4.57,6.08h-2.1Zm-4-13.33h-4.59v6h4.57c2.23,0,3.83-1.14,3.83-3.08s-1.39-2.92-3.79-2.92h-.02Z"/><path class="cls-1" d="m287.67,65.56h-1.7v-13.33h-5v-1.55h11.69v1.55h-5v13.33Z"/><path class="cls-1" d="m297.49,58.86v6.7h-1.68v-14.88h1.68v6.61h8.59v-6.61h1.68v14.88h-1.68v-6.7h-8.59Z"/><path class="cls-1" d="m322.73,52.21h-9.08v5.08h8.12v1.53h-8.12v5.21h9.19v1.53h-10.87v-14.88h10.76v1.53Z"/><path class="cls-1" d="m334.58,53.65v3.17h7.1v3h-7.1v5.76h-3.28v-14.9h11.33v3l-8.05-.03Z"/><path class="cls-1" d="m345.4,65.56v-14.88h3.27v14.88h-3.27Z"/><path class="cls-1" d="m352.39,65.56v-14.88h11.23v2.91h-8v3h7v2.91h-7v3.15h8.08v2.91h-11.31Z"/><path class="cls-1" d="m366.64,65.56v-14.88h3.28v11.9h7.42v3l-10.7-.02Z"/><path class="cls-1" d="m385.61,65.56h-5.81v-14.88h5.81c4.67,0,7.91,3.21,7.91,7.39h0c0,4.24-3.24,7.49-7.91,7.49Zm4.47-7.44c.12-2.35-1.68-4.36-4.04-4.49-.15,0-.29,0-.44,0h-2.52v9h2.53c2.33.14,4.33-1.64,4.47-3.98,0-.16,0-.33,0-.49v-.04Z"/><path class="cls-1" d="m147.08,1.57c-19.57,0-29.35,9.32-29.35,27.95s8.4,27.51,25.2,27.52c4.7.04,9.35-.88,13.68-2.7,0,.59.07,1.18.2,1.75v1.1c0,5.65-4.59,10.23-10.24,10.24h-25v14h25c13.37-.02,24.2-10.87,24.21-24.24v-1.14c.07-.75.1-1.5.1-2.25V3.88c-7.86-1.41-15.82-2.18-23.8-2.31Zm9.53,40.71c-3.72,1.89-7.83,2.89-12,2.91-8.51,0-12.77-5.26-12.76-15.78,0-10.88,4.94-16.32,14.81-16.32,3.38-.14,6.76.3,10,1.29l-.05,27.9ZM26.55,1.57C8.85,1.57,0,10.78,0,29.19s10.25,28.92,30.75,28.92c6.11.09,12.21-.45,18.2-1.61v-11.31c-5.64,1.07-11.38,1.6-17.12,1.61-11.71,0-17.57-3.98-17.56-11.95h37.54c.32-2.32.48-4.66.48-7,0-17.52-8.58-26.28-25.74-26.28Zm11.85,23.38H14.27c.67-8.12,4.76-12.18,12.28-12.17,7.9,0,11.85,3.91,11.85,11.74v.43ZM85.4,0c-14.32.02-25.93,11.62-25.96,25.94v32.11h14.49V25.95c.19-6.33,5.47-11.3,11.79-11.12,6.06.18,10.94,5.05,11.12,11.12v32.11h14.5V25.95c-.03-14.32-11.63-25.92-25.95-25.95h.01Z"/></g></svg>